<svg width="207" height="229" viewBox="0 0 207 229" fill="none" xmlns="http://www.w3.org/2000/svg">
<path d="M77.2955 86.3636V98H75.8864V87.8409H75.8182L72.9773 89.7273V88.2955L75.8864 86.3636H77.2955ZM84.4375 98.1591C83.5814 98.1591 82.8523 97.9261 82.25 97.4602C81.6477 96.9905 81.1875 96.3106 80.8693 95.4205C80.5511 94.5265 80.392 93.447 80.392 92.1818C80.392 90.9242 80.5511 89.8504 80.8693 88.9602C81.1913 88.0663 81.6534 87.3845 82.2557 86.9148C82.8617 86.4413 83.589 86.2045 84.4375 86.2045C85.286 86.2045 86.0114 86.4413 86.6136 86.9148C87.2197 87.3845 87.6818 88.0663 88 88.9602C88.322 89.8504 88.483 90.9242 88.483 92.1818C88.483 93.447 88.3239 94.5265 88.0057 95.4205C87.6875 96.3106 87.2273 96.9905 86.625 97.4602C86.0227 97.9261 85.2936 98.1591 84.4375 98.1591ZM84.4375 96.9091C85.286 96.9091 85.9451 96.5 86.4148 95.6818C86.8845 94.8636 87.1193 93.697 87.1193 92.1818C87.1193 91.1742 87.0114 90.3163 86.7955 89.608C86.5833 88.8996 86.2765 88.3598 85.875 87.9886C85.4773 87.6174 84.9981 87.4318 84.4375 87.4318C83.5966 87.4318 82.9394 87.8466 82.4659 88.6761C81.9924 89.5019 81.7557 90.6705 81.7557 92.1818C81.7557 93.1894 81.8617 94.0455 82.0739 94.75C82.286 95.4545 82.5909 95.9905 82.9886 96.358C83.3902 96.7254 83.8731 96.9091 84.4375 96.9091ZM94.4375 98.1591C93.5814 98.1591 92.8523 97.9261 92.25 97.4602C91.6477 96.9905 91.1875 96.3106 90.8693 95.4205C90.5511 94.5265 90.392 93.447 90.392 92.1818C90.392 90.9242 90.5511 89.8504 90.8693 88.9602C91.1913 88.0663 91.6534 87.3845 92.2557 86.9148C92.8617 86.4413 93.589 86.2045 94.4375 86.2045C95.286 86.2045 96.0114 86.4413 96.6136 86.9148C97.2197 87.3845 97.6818 88.0663 98 88.9602C98.322 89.8504 98.483 90.9242 98.483 92.1818C98.483 93.447 98.3239 94.5265 98.0057 95.4205C97.6875 96.3106 97.2273 96.9905 96.625 97.4602C96.0227 97.9261 95.2936 98.1591 94.4375 98.1591ZM94.4375 96.9091C95.286 96.9091 95.9451 96.5 96.4148 95.6818C96.8845 94.8636 97.1193 93.697 97.1193 92.1818C97.1193 91.1742 97.0114 90.3163 96.7955 89.608C96.5833 88.8996 96.2765 88.3598 95.875 87.9886C95.4773 87.6174 94.9981 87.4318 94.4375 87.4318C93.5966 87.4318 92.9394 87.8466 92.4659 88.6761C91.9924 89.5019 91.7557 90.6705 91.7557 92.1818C91.7557 93.1894 91.8617 94.0455 92.0739 94.75C92.286 95.4545 92.5909 95.9905 92.9886 96.358C93.3902 96.7254 93.8731 96.9091 94.4375 96.9091ZM106.574 95.8182V95.2045C106.574 94.7803 106.661 94.392 106.835 94.0398C107.013 93.6837 107.271 93.3996 107.608 93.1875C107.949 92.9716 108.362 92.8636 108.847 92.8636C109.339 92.8636 109.752 92.9716 110.085 93.1875C110.419 93.3996 110.67 93.6837 110.841 94.0398C111.011 94.392 111.097 94.7803 111.097 95.2045V95.8182C111.097 96.2424 111.009 96.6326 110.835 96.9886C110.665 97.3409 110.411 97.625 110.074 97.8409C109.741 98.053 109.331 98.1591 108.847 98.1591C108.354 98.1591 107.939 98.053 107.602 97.8409C107.265 97.625 107.009 97.3409 106.835 96.9886C106.661 96.6326 106.574 96.2424 106.574 95.8182ZM107.733 95.2045V95.8182C107.733 96.1705 107.816 96.4867 107.983 96.767C108.15 97.0436 108.438 97.1818 108.847 97.1818C109.244 97.1818 109.525 97.0436 109.688 96.767C109.854 96.4867 109.938 96.1705 109.938 95.8182V95.2045C109.938 94.8523 109.858 94.5379 109.699 94.2614C109.54 93.9811 109.256 93.8409 108.847 93.8409C108.449 93.8409 108.163 93.9811 107.989 94.2614C107.818 94.5379 107.733 94.8523 107.733 95.2045ZM100.778 89.1591V88.5455C100.778 88.1212 100.866 87.733 101.04 87.3807C101.218 87.0246 101.475 86.7405 101.812 86.5284C102.153 86.3125 102.566 86.2045 103.051 86.2045C103.544 86.2045 103.956 86.3125 104.29 86.5284C104.623 86.7405 104.875 87.0246 105.045 87.3807C105.216 87.733 105.301 88.1212 105.301 88.5455V89.1591C105.301 89.5833 105.214 89.9735 105.04 90.3295C104.869 90.6818 104.616 90.9659 104.278 91.1818C103.945 91.3939 103.536 91.5 103.051 91.5C102.559 91.5 102.144 91.3939 101.807 91.1818C101.47 90.9659 101.214 90.6818 101.04 90.3295C100.866 89.9735 100.778 89.5833 100.778 89.1591ZM101.938 88.5455V89.1591C101.938 89.5114 102.021 89.8277 102.188 90.108C102.354 90.3845 102.642 90.5227 103.051 90.5227C103.449 90.5227 103.729 90.3845 103.892 90.108C104.059 89.8277 104.142 89.5114 104.142 89.1591V88.5455C104.142 88.1932 104.062 87.8788 103.903 87.6023C103.744 87.322 103.46 87.1818 103.051 87.1818C102.653 87.1818 102.367 87.322 102.193 87.6023C102.023 87.8788 101.938 88.1932 101.938 88.5455ZM101.21 98L109.21 86.3636H110.506L102.506 98H101.21Z" fill="#4E4E4E"/>
<circle cx="92" cy="92" r="57.5" stroke="white" stroke-width="15"/>
<mask id="path-3-inside-1_248_96" fill="white">
<path d="M154.293 110.563C157.537 99.6764 157.872 88.13 155.263 77.0742C152.655 66.0183 147.194 55.8391 139.426 47.5508C131.659 39.2626 121.854 33.1547 110.99 29.836C100.127 26.5172 88.5827 26.1034 77.5092 28.6358L80.6366 42.3112C89.3202 40.3254 98.3727 40.6498 106.892 43.2523C115.411 45.8548 123.099 50.6445 129.191 57.1439C135.282 63.6434 139.564 71.6257 141.61 80.2955C143.655 88.9653 143.393 98.0197 140.849 106.557L154.293 110.563Z"/>
</mask>
<path d="M154.293 110.563C157.537 99.6764 157.872 88.13 155.263 77.0742C152.655 66.0183 147.194 55.8391 139.426 47.5508C131.659 39.2626 121.854 33.1547 110.99 29.836C100.127 26.5172 88.5827 26.1034 77.5092 28.6358L80.6366 42.3112C89.3202 40.3254 98.3727 40.6498 106.892 43.2523C115.411 45.8548 123.099 50.6445 129.191 57.1439C135.282 63.6434 139.564 71.6257 141.61 80.2955C143.655 88.9653 143.393 98.0197 140.849 106.557L154.293 110.563Z" stroke="#25A7FE" stroke-width="30" mask="url(#path-3-inside-1_248_96)"/>
<mask id="path-4-inside-2_248_96" fill="white">
<path d="M76.0766 29.1169C60.2536 33.1441 46.5257 42.9786 37.6226 56.6651L49.3819 64.3146C56.3635 53.582 67.1286 45.8699 79.5367 42.7119L76.0766 29.1169Z"/>
</mask>
<path d="M76.0766 29.1169C60.2536 33.1441 46.5257 42.9786 37.6226 56.6651L49.3819 64.3146C56.3635 53.582 67.1286 45.8699 79.5367 42.7119L76.0766 29.1169Z" stroke="#79E9EA" stroke-width="30" mask="url(#path-4-inside-2_248_96)"/>
<mask id="path-5-inside-3_248_96" fill="white">
<path d="M36.7741 58.0048C28.2075 71.9043 25.1857 88.5188 28.3095 104.545L42.0788 101.861C39.6291 89.2936 41.9988 76.2649 48.7166 65.3652L36.7741 58.0048Z"/>
</mask>
<path d="M36.7741 58.0048C28.2075 71.9043 25.1857 88.5188 28.3095 104.545L42.0788 101.861C39.6291 89.2936 41.9988 76.2649 48.7166 65.3652L36.7741 58.0048Z" stroke="#F073A1" stroke-width="30" mask="url(#path-5-inside-3_248_96)"/>
<mask id="path-6-inside-4_248_96" fill="white">
<path d="M28.5893 105.903C32.0544 121.859 41.3972 135.926 54.7603 145.307L62.8209 133.826C52.3419 126.469 45.0154 115.438 42.2982 102.926L28.5893 105.903Z"/>
</mask>
<path d="M28.5893 105.903C32.0544 121.859 41.3972 135.926 54.7603 145.307L62.8209 133.826C52.3419 126.469 45.0154 115.438 42.2982 102.926L28.5893 105.903Z" stroke="#ED7E6A" stroke-width="30" mask="url(#path-6-inside-4_248_96)"/>
<mask id="path-7-inside-5_248_96" fill="white">
<path d="M56.3577 146.394C69.9936 155.374 86.5098 158.894 102.622 156.253L100.353 142.409C87.7182 144.48 74.7665 141.72 64.0735 134.678L56.3577 146.394Z"/>
</mask>
<path d="M56.3577 146.394C69.9936 155.374 86.5098 158.894 102.622 156.253L100.353 142.409C87.7182 144.48 74.7665 141.72 64.0735 134.678L56.3577 146.394Z" stroke="#53E39E" stroke-width="30" mask="url(#path-7-inside-5_248_96)"/>
<mask id="path-8-inside-6_248_96" fill="white">
<path d="M104.108 155.992C115.657 153.822 126.402 148.563 135.199 140.773C143.997 132.983 150.518 122.953 154.07 111.752L140.697 107.512C137.912 116.296 132.798 124.161 125.9 130.27C119.001 136.379 110.575 140.503 101.518 142.204L104.108 155.992Z"/>
</mask>
<path d="M104.108 155.992C115.657 153.822 126.402 148.563 135.199 140.773C143.997 132.983 150.518 122.953 154.07 111.752L140.697 107.512C137.912 116.296 132.798 124.161 125.9 130.27C119.001 136.379 110.575 140.503 101.518 142.204L104.108 155.992Z" stroke="#A656FE" stroke-width="30" mask="url(#path-8-inside-6_248_96)"/>
<path d="M47.0795 180H46.0227C45.9602 179.696 45.8509 179.429 45.6946 179.199C45.5412 178.969 45.3537 178.776 45.1321 178.619C44.9134 178.46 44.6705 178.341 44.4034 178.261C44.1364 178.182 43.858 178.142 43.5682 178.142C43.0398 178.142 42.5611 178.276 42.1321 178.543C41.706 178.81 41.3665 179.203 41.1136 179.723C40.8636 180.243 40.7386 180.881 40.7386 181.636C40.7386 182.392 40.8636 183.03 41.1136 183.55C41.3665 184.07 41.706 184.463 42.1321 184.73C42.5611 184.997 43.0398 185.131 43.5682 185.131C43.858 185.131 44.1364 185.091 44.4034 185.011C44.6705 184.932 44.9134 184.814 45.1321 184.658C45.3537 184.499 45.5412 184.304 45.6946 184.074C45.8509 183.841 45.9602 183.574 46.0227 183.273H47.0795C47 183.719 46.8551 184.118 46.6449 184.47C46.4347 184.822 46.1733 185.122 45.8608 185.369C45.5483 185.614 45.1974 185.8 44.8082 185.928C44.4219 186.055 44.0085 186.119 43.5682 186.119C42.8239 186.119 42.1619 185.938 41.5824 185.574C41.0028 185.21 40.5469 184.693 40.2145 184.023C39.8821 183.352 39.7159 182.557 39.7159 181.636C39.7159 180.716 39.8821 179.92 40.2145 179.25C40.5469 178.58 41.0028 178.062 41.5824 177.699C42.1619 177.335 42.8239 177.153 43.5682 177.153C44.0085 177.153 44.4219 177.217 44.8082 177.345C45.1974 177.473 45.5483 177.661 45.8608 177.908C46.1733 178.152 46.4347 178.45 46.6449 178.803C46.8551 179.152 47 179.551 47.0795 180ZM48.6509 186V179.455H49.6225V180.443H49.6907C49.81 180.119 50.0259 179.857 50.3384 179.655C50.6509 179.453 51.0032 179.352 51.3952 179.352C51.4691 179.352 51.5614 179.354 51.6722 179.357C51.783 179.359 51.8668 179.364 51.9237 179.369V180.392C51.8896 180.384 51.8114 180.371 51.6893 180.354C51.57 180.334 51.4435 180.324 51.31 180.324C50.9918 180.324 50.7077 180.391 50.4577 180.524C50.2106 180.655 50.0146 180.837 49.8697 181.07C49.7276 181.3 49.6566 181.562 49.6566 181.858V186H48.6509ZM55.5756 186.136C54.9847 186.136 54.4663 185.996 54.0202 185.714C53.5771 185.433 53.2305 185.04 52.9805 184.534C52.7333 184.028 52.6097 183.437 52.6097 182.761C52.6097 182.08 52.7333 181.484 52.9805 180.976C53.2305 180.467 53.5771 180.072 54.0202 179.791C54.4663 179.51 54.9847 179.369 55.5756 179.369C56.1665 179.369 56.6836 179.51 57.1268 179.791C57.5728 180.072 57.9194 180.467 58.1665 180.976C58.4165 181.484 58.5415 182.08 58.5415 182.761C58.5415 183.437 58.4165 184.028 58.1665 184.534C57.9194 185.04 57.5728 185.433 57.1268 185.714C56.6836 185.996 56.1665 186.136 55.5756 186.136ZM55.5756 185.233C56.0245 185.233 56.3938 185.118 56.6836 184.888C56.9734 184.658 57.1879 184.355 57.3271 183.98C57.4663 183.605 57.5359 183.199 57.5359 182.761C57.5359 182.324 57.4663 181.916 57.3271 181.538C57.1879 181.161 56.9734 180.855 56.6836 180.622C56.3938 180.389 56.0245 180.273 55.5756 180.273C55.1268 180.273 54.7575 180.389 54.4677 180.622C54.1779 180.855 53.9634 181.161 53.8242 181.538C53.685 181.916 53.6154 182.324 53.6154 182.761C53.6154 183.199 53.685 183.605 53.8242 183.98C53.9634 184.355 54.1779 184.658 54.4677 184.888C54.7575 185.118 55.1268 185.233 55.5756 185.233ZM61.337 186L59.3427 179.455H60.3995L61.8143 184.466H61.8825L63.2802 179.455H64.354L65.7347 184.449H65.8029L67.2177 179.455H68.2745L66.2802 186H65.2915L63.8597 180.972H63.7575L62.3256 186H61.337ZM71.853 186.136C71.3075 186.136 70.826 185.999 70.4084 185.723C69.9908 185.445 69.6641 185.053 69.4283 184.547C69.1925 184.038 69.0746 183.438 69.0746 182.744C69.0746 182.057 69.1925 181.46 69.4283 180.955C69.6641 180.449 69.9922 180.058 70.4126 179.783C70.8331 179.507 71.3189 179.369 71.87 179.369C72.2962 179.369 72.6328 179.44 72.88 179.582C73.13 179.722 73.3203 179.881 73.451 180.06C73.5845 180.236 73.6882 180.381 73.7621 180.494H73.8473V177.273H74.853V186H73.8814V184.994H73.7621C73.6882 185.114 73.5831 185.264 73.4467 185.446C73.3104 185.625 73.1158 185.786 72.8629 185.928C72.6101 186.067 72.2734 186.136 71.853 186.136ZM71.9893 185.233C72.3928 185.233 72.7337 185.128 73.0121 184.918C73.2905 184.705 73.5021 184.411 73.647 184.036C73.7919 183.658 73.8643 183.222 73.8643 182.727C73.8643 182.239 73.7933 181.811 73.6513 181.445C73.5092 181.075 73.299 180.788 73.0206 180.584C72.7422 180.376 72.3984 180.273 71.9893 180.273C71.5632 180.273 71.2081 180.382 70.924 180.601C70.6428 180.817 70.4311 181.111 70.2891 181.483C70.1499 181.852 70.0803 182.267 70.0803 182.727C70.0803 183.193 70.1513 183.616 70.2933 183.997C70.4382 184.375 70.6513 184.676 70.9325 184.901C71.2166 185.122 71.5689 185.233 71.9893 185.233ZM84.8459 180.92L83.9425 181.176C83.8857 181.026 83.8018 180.879 83.6911 180.737C83.5831 180.592 83.4354 180.473 83.2479 180.379C83.0604 180.286 82.8203 180.239 82.5277 180.239C82.1271 180.239 81.7933 180.331 81.5263 180.516C81.2621 180.697 81.13 180.929 81.13 181.21C81.13 181.46 81.2209 181.658 81.4027 181.803C81.5845 181.947 81.8686 182.068 82.255 182.165L83.2266 182.403C83.8118 182.545 84.2479 182.763 84.5348 183.055C84.8217 183.345 84.9652 183.719 84.9652 184.176C84.9652 184.551 84.8572 184.886 84.6413 185.182C84.4283 185.477 84.13 185.71 83.7464 185.881C83.3629 186.051 82.9169 186.136 82.4084 186.136C81.7408 186.136 81.1882 185.991 80.7507 185.702C80.3132 185.412 80.0362 184.989 79.9197 184.432L80.8743 184.193C80.9652 184.545 81.1371 184.81 81.3899 184.986C81.6456 185.162 81.9794 185.25 82.3913 185.25C82.8601 185.25 83.2322 185.151 83.5078 184.952C83.7862 184.75 83.9254 184.509 83.9254 184.227C83.9254 184 83.8459 183.81 83.6868 183.656C83.5277 183.5 83.2834 183.384 82.9538 183.307L81.8629 183.051C81.2635 182.909 80.8232 182.689 80.5419 182.391C80.2635 182.089 80.1243 181.713 80.1243 181.261C80.1243 180.892 80.228 180.565 80.4354 180.281C80.6456 179.997 80.9311 179.774 81.2919 179.612C81.6555 179.45 82.0675 179.369 82.5277 179.369C83.1754 179.369 83.6839 179.511 84.0533 179.795C84.4254 180.08 84.6896 180.455 84.8459 180.92ZM88.4052 186.153C87.9904 186.153 87.614 186.075 87.2759 185.919C86.9379 185.76 86.6694 185.531 86.4705 185.233C86.2717 184.932 86.1722 184.568 86.1722 184.142C86.1722 183.767 86.2461 183.463 86.3938 183.23C86.5415 182.994 86.739 182.81 86.9862 182.676C87.2333 182.543 87.506 182.443 87.8043 182.378C88.1055 182.31 88.408 182.256 88.712 182.216C89.1097 182.165 89.4322 182.126 89.6793 182.101C89.9293 182.072 90.1112 182.026 90.2248 181.96C90.3413 181.895 90.3995 181.781 90.3995 181.619V181.585C90.3995 181.165 90.2844 180.838 90.0543 180.605C89.8271 180.372 89.4819 180.256 89.0188 180.256C88.5387 180.256 88.1623 180.361 87.8896 180.571C87.6168 180.781 87.4251 181.006 87.3143 181.244L86.3597 180.903C86.5302 180.506 86.7575 180.196 87.0415 179.974C87.3285 179.75 87.641 179.594 87.979 179.506C88.32 179.415 88.6552 179.369 88.9847 179.369C89.195 179.369 89.4364 179.395 89.7092 179.446C89.9847 179.494 90.2504 179.595 90.506 179.749C90.7646 179.902 90.979 180.134 91.1495 180.443C91.32 180.753 91.4052 181.168 91.4052 181.688V186H90.3995V185.114H90.3484C90.2802 185.256 90.1665 185.408 90.0075 185.57C89.8484 185.732 89.6367 185.869 89.3725 185.983C89.1083 186.097 88.7859 186.153 88.4052 186.153ZM88.5586 185.25C88.9563 185.25 89.2915 185.172 89.5643 185.016C89.8398 184.859 90.0472 184.658 90.1864 184.411C90.3285 184.163 90.3995 183.903 90.3995 183.631V182.71C90.3569 182.761 90.2631 182.808 90.1183 182.851C89.9762 182.891 89.8114 182.926 89.6239 182.957C89.4393 182.986 89.2589 183.011 89.0827 183.034C88.9094 183.054 88.7688 183.071 88.6609 183.085C88.3995 183.119 88.1552 183.175 87.9279 183.251C87.7035 183.325 87.5217 183.437 87.3825 183.588C87.2461 183.736 87.1779 183.937 87.1779 184.193C87.1779 184.543 87.3072 184.807 87.5657 184.986C87.8271 185.162 88.158 185.25 88.5586 185.25ZM94.2464 177.273V186H93.2408V177.273H94.2464ZM98.8327 186.136C98.2021 186.136 97.658 185.997 97.2006 185.719C96.7461 185.438 96.3952 185.045 96.1481 184.543C95.9038 184.037 95.7816 183.449 95.7816 182.778C95.7816 182.108 95.9038 181.517 96.1481 181.006C96.3952 180.491 96.739 180.091 97.1793 179.804C97.6225 179.514 98.1396 179.369 98.7305 179.369C99.0714 179.369 99.408 179.426 99.7404 179.54C100.073 179.653 100.375 179.838 100.648 180.094C100.921 180.347 101.138 180.682 101.3 181.099C101.462 181.517 101.543 182.031 101.543 182.642V183.068H96.4975V182.199H100.52C100.52 181.83 100.446 181.5 100.299 181.21C100.154 180.92 99.9464 180.692 99.6765 180.524C99.4094 180.357 99.0941 180.273 98.7305 180.273C98.3299 180.273 97.9833 180.372 97.6907 180.571C97.4009 180.767 97.1779 181.023 97.0217 181.338C96.8654 181.653 96.7873 181.991 96.7873 182.352V182.932C96.7873 183.426 96.8725 183.845 97.043 184.189C97.2163 184.53 97.4563 184.79 97.7631 184.969C98.07 185.145 98.4265 185.233 98.8327 185.233C99.0969 185.233 99.3356 185.196 99.5487 185.122C99.7646 185.045 99.9506 184.932 100.107 184.781C100.263 184.628 100.384 184.437 100.469 184.21L101.441 184.483C101.338 184.812 101.167 185.102 100.925 185.352C100.684 185.599 100.385 185.793 100.03 185.932C99.6751 186.068 99.2759 186.136 98.8327 186.136Z" fill="#4E4E4E"/>
<circle cx="26.5" cy="182.5" r="4.5" fill="#25A7FE"/>
<path d="M39.5795 198.21V197.273H46.125V198.21H43.3807V206H42.3239V198.21H39.5795ZM49.4148 206.136C48.7841 206.136 48.2401 205.997 47.7827 205.719C47.3281 205.438 46.9773 205.045 46.7301 204.543C46.4858 204.037 46.3636 203.449 46.3636 202.778C46.3636 202.108 46.4858 201.517 46.7301 201.006C46.9773 200.491 47.321 200.091 47.7614 199.804C48.2045 199.514 48.7216 199.369 49.3125 199.369C49.6534 199.369 49.9901 199.426 50.3224 199.54C50.6548 199.653 50.9574 199.838 51.2301 200.094C51.5028 200.347 51.7202 200.682 51.8821 201.099C52.044 201.517 52.125 202.031 52.125 202.642V203.068H47.0795V202.199H51.1023C51.1023 201.83 51.0284 201.5 50.8807 201.21C50.7358 200.92 50.5284 200.692 50.2585 200.524C49.9915 200.357 49.6761 200.273 49.3125 200.273C48.9119 200.273 48.5653 200.372 48.2727 200.571C47.983 200.767 47.7599 201.023 47.6037 201.338C47.4474 201.653 47.3693 201.991 47.3693 202.352V202.932C47.3693 203.426 47.4545 203.845 47.625 204.189C47.7983 204.53 48.0384 204.79 48.3452 204.969C48.652 205.145 49.0085 205.233 49.4148 205.233C49.679 205.233 49.9176 205.196 50.1307 205.122C50.3466 205.045 50.5327 204.932 50.6889 204.781C50.8452 204.628 50.9659 204.437 51.0511 204.21L52.0227 204.483C51.9205 204.812 51.7486 205.102 51.5071 205.352C51.2656 205.599 50.9673 205.793 50.6122 205.932C50.2571 206.068 49.858 206.136 49.4148 206.136ZM55.581 206.153C55.1662 206.153 54.7898 206.075 54.4517 205.919C54.1136 205.76 53.8452 205.531 53.6463 205.233C53.4474 204.932 53.348 204.568 53.348 204.142C53.348 203.767 53.4219 203.463 53.5696 203.23C53.7173 202.994 53.9148 202.81 54.1619 202.676C54.4091 202.543 54.6818 202.443 54.9801 202.378C55.2813 202.31 55.5838 202.256 55.8878 202.216C56.2855 202.165 56.608 202.126 56.8551 202.101C57.1051 202.072 57.2869 202.026 57.4006 201.96C57.517 201.895 57.5753 201.781 57.5753 201.619V201.585C57.5753 201.165 57.4602 200.838 57.2301 200.605C57.0028 200.372 56.6577 200.256 56.1946 200.256C55.7145 200.256 55.3381 200.361 55.0653 200.571C54.7926 200.781 54.6009 201.006 54.4901 201.244L53.5355 200.903C53.706 200.506 53.9332 200.196 54.2173 199.974C54.5043 199.75 54.8168 199.594 55.1548 199.506C55.4957 199.415 55.831 199.369 56.1605 199.369C56.3707 199.369 56.6122 199.395 56.8849 199.446C57.1605 199.494 57.4261 199.595 57.6818 199.749C57.9403 199.902 58.1548 200.134 58.3253 200.443C58.4957 200.753 58.581 201.168 58.581 201.688V206H57.5753V205.114H57.5241C57.456 205.256 57.3423 205.408 57.1832 205.57C57.0241 205.732 56.8125 205.869 56.5483 205.983C56.2841 206.097 55.9616 206.153 55.581 206.153ZM55.7344 205.25C56.1321 205.25 56.4673 205.172 56.7401 205.016C57.0156 204.859 57.223 204.658 57.3622 204.411C57.5043 204.163 57.5753 203.903 57.5753 203.631V202.71C57.5327 202.761 57.4389 202.808 57.294 202.851C57.152 202.891 56.9872 202.926 56.7997 202.957C56.6151 202.986 56.4347 203.011 56.2585 203.034C56.0852 203.054 55.9446 203.071 55.8366 203.085C55.5753 203.119 55.331 203.175 55.1037 203.251C54.8793 203.325 54.6974 203.437 54.5582 203.588C54.4219 203.736 54.3537 203.937 54.3537 204.193C54.3537 204.543 54.483 204.807 54.7415 204.986C55.0028 205.162 55.3338 205.25 55.7344 205.25ZM60.4165 206V199.455H61.3881V200.477H61.4734C61.6097 200.128 61.8299 199.857 62.1339 199.663C62.4379 199.467 62.8029 199.369 63.229 199.369C63.6609 199.369 64.0202 199.467 64.3072 199.663C64.5969 199.857 64.8228 200.128 64.9847 200.477H65.0529C65.2205 200.139 65.4719 199.871 65.8072 199.672C66.1424 199.47 66.5444 199.369 67.0131 199.369C67.5984 199.369 68.0771 199.553 68.4492 199.919C68.8214 200.283 69.0075 200.849 69.0075 201.619V206H68.0018V201.619C68.0018 201.136 67.8697 200.791 67.6055 200.584C67.3413 200.376 67.0302 200.273 66.6722 200.273C66.212 200.273 65.8555 200.412 65.6026 200.69C65.3498 200.966 65.2234 201.315 65.2234 201.739V206H64.2006V201.517C64.2006 201.145 64.0799 200.845 63.8384 200.618C63.5969 200.388 63.2859 200.273 62.9052 200.273C62.6438 200.273 62.3995 200.342 62.1722 200.482C61.9478 200.621 61.766 200.814 61.6268 201.061C61.4904 201.305 61.4222 201.588 61.4222 201.909V206H60.4165Z" fill="#4E4E4E"/>
<circle cx="26.5" cy="202.5" r="4.5" fill="#79E9EA"/>
<path d="M40.4148 226H39.3068L42.5114 217.273H43.6023L46.8068 226H45.6989L43.0909 218.653H43.0227L40.4148 226ZM40.8239 222.591H45.2898V223.528H40.8239V222.591ZM50.5014 226.136C49.956 226.136 49.4744 225.999 49.0568 225.723C48.6392 225.445 48.3125 225.053 48.0767 224.547C47.8409 224.038 47.723 223.438 47.723 222.744C47.723 222.057 47.8409 221.46 48.0767 220.955C48.3125 220.449 48.6406 220.058 49.0611 219.783C49.4815 219.507 49.9673 219.369 50.5185 219.369C50.9446 219.369 51.2813 219.44 51.5284 219.582C51.7784 219.722 51.9688 219.881 52.0994 220.06C52.233 220.236 52.3366 220.381 52.4105 220.494H52.4957V217.273H53.5014V226H52.5298V224.994H52.4105C52.3366 225.114 52.2315 225.264 52.0952 225.446C51.9588 225.625 51.7642 225.786 51.5114 225.928C51.2585 226.067 50.9219 226.136 50.5014 226.136ZM50.6378 225.233C51.0412 225.233 51.3821 225.128 51.6605 224.918C51.9389 224.705 52.1506 224.411 52.2955 224.036C52.4403 223.658 52.5128 223.222 52.5128 222.727C52.5128 222.239 52.4418 221.811 52.2997 221.445C52.1577 221.075 51.9474 220.788 51.669 220.584C51.3906 220.376 51.0469 220.273 50.6378 220.273C50.2116 220.273 49.8565 220.382 49.5724 220.601C49.2912 220.817 49.0795 221.111 48.9375 221.483C48.7983 221.852 48.7287 222.267 48.7287 222.727C48.7287 223.193 48.7997 223.616 48.9418 223.997C49.0866 224.375 49.2997 224.676 49.581 224.901C49.8651 225.122 50.2173 225.233 50.6378 225.233ZM60.8352 219.455L58.4148 226H57.392L54.9716 219.455H56.0625L57.8693 224.67H57.9375L59.7443 219.455H60.8352ZM62.1626 226V219.455H63.1683V226H62.1626ZM62.674 218.364C62.478 218.364 62.3089 218.297 62.1669 218.163C62.0277 218.03 61.9581 217.869 61.9581 217.682C61.9581 217.494 62.0277 217.334 62.1669 217.2C62.3089 217.067 62.478 217 62.674 217C62.87 217 63.0376 217.067 63.1768 217.2C63.3189 217.334 63.3899 217.494 63.3899 217.682C63.3899 217.869 63.3189 218.03 63.1768 218.163C63.0376 218.297 62.87 218.364 62.674 218.364ZM69.6467 220.92L68.7433 221.176C68.6864 221.026 68.6026 220.879 68.4918 220.737C68.3839 220.592 68.2362 220.473 68.0487 220.379C67.8612 220.286 67.6211 220.239 67.3285 220.239C66.9279 220.239 66.5941 220.331 66.3271 220.516C66.0629 220.697 65.9308 220.929 65.9308 221.21C65.9308 221.46 66.0217 221.658 66.2035 221.803C66.3853 221.947 66.6694 222.068 67.0558 222.165L68.0273 222.403C68.6126 222.545 69.0487 222.763 69.3356 223.055C69.6225 223.345 69.766 223.719 69.766 224.176C69.766 224.551 69.658 224.886 69.4421 225.182C69.229 225.477 68.9308 225.71 68.5472 225.881C68.1637 226.051 67.7177 226.136 67.2092 226.136C66.5415 226.136 65.989 225.991 65.5515 225.702C65.114 225.412 64.837 224.989 64.7205 224.432L65.6751 224.193C65.766 224.545 65.9379 224.81 66.1907 224.986C66.4464 225.162 66.7802 225.25 67.1921 225.25C67.6609 225.25 68.033 225.151 68.3086 224.952C68.587 224.75 68.7262 224.509 68.7262 224.227C68.7262 224 68.6467 223.81 68.4876 223.656C68.3285 223.5 68.0842 223.384 67.7546 223.307L66.6637 223.051C66.0643 222.909 65.6239 222.689 65.3427 222.391C65.0643 222.089 64.9251 221.713 64.9251 221.261C64.9251 220.892 65.0288 220.565 65.2362 220.281C65.4464 219.997 65.7319 219.774 66.0927 219.612C66.4563 219.45 66.8683 219.369 67.3285 219.369C67.9762 219.369 68.4847 219.511 68.854 219.795C69.2262 220.08 69.4904 220.455 69.6467 220.92ZM73.9389 226.136C73.348 226.136 72.8295 225.996 72.3835 225.714C71.9403 225.433 71.5938 225.04 71.3438 224.534C71.0966 224.028 70.973 223.437 70.973 222.761C70.973 222.08 71.0966 221.484 71.3438 220.976C71.5938 220.467 71.9403 220.072 72.3835 219.791C72.8295 219.51 73.348 219.369 73.9389 219.369C74.5298 219.369 75.0469 219.51 75.4901 219.791C75.9361 220.072 76.2827 220.467 76.5298 220.976C76.7798 221.484 76.9048 222.08 76.9048 222.761C76.9048 223.437 76.7798 224.028 76.5298 224.534C76.2827 225.04 75.9361 225.433 75.4901 225.714C75.0469 225.996 74.5298 226.136 73.9389 226.136ZM73.9389 225.233C74.3878 225.233 74.7571 225.118 75.0469 224.888C75.3366 224.658 75.5511 224.355 75.6903 223.98C75.8295 223.605 75.8991 223.199 75.8991 222.761C75.8991 222.324 75.8295 221.916 75.6903 221.538C75.5511 221.161 75.3366 220.855 75.0469 220.622C74.7571 220.389 74.3878 220.273 73.9389 220.273C73.4901 220.273 73.1207 220.389 72.831 220.622C72.5412 220.855 72.3267 221.161 72.1875 221.538C72.0483 221.916 71.9787 222.324 71.9787 222.761C71.9787 223.199 72.0483 223.605 72.1875 223.98C72.3267 224.355 72.5412 224.658 72.831 224.888C73.1207 225.118 73.4901 225.233 73.9389 225.233ZM78.44 226V219.455H79.4116V220.443H79.4798C79.5991 220.119 79.815 219.857 80.1275 219.655C80.44 219.453 80.7923 219.352 81.1843 219.352C81.2582 219.352 81.3505 219.354 81.4613 219.357C81.5721 219.359 81.6559 219.364 81.7127 219.369V220.392C81.6786 220.384 81.6005 220.371 81.4783 220.354C81.359 220.334 81.2326 220.324 81.0991 220.324C80.7809 220.324 80.4968 220.391 80.2468 220.524C79.9996 220.655 79.8036 220.837 79.6587 221.07C79.5167 221.3 79.4457 221.562 79.4457 221.858V226H78.44ZM87.5412 220.92L86.6378 221.176C86.581 221.026 86.4972 220.879 86.3864 220.737C86.2784 220.592 86.1307 220.473 85.9432 220.379C85.7557 220.286 85.5156 220.239 85.223 220.239C84.8224 220.239 84.4886 220.331 84.2216 220.516C83.9574 220.697 83.8253 220.929 83.8253 221.21C83.8253 221.46 83.9162 221.658 84.098 221.803C84.2798 221.947 84.5639 222.068 84.9503 222.165L85.9219 222.403C86.5071 222.545 86.9432 222.763 87.2301 223.055C87.517 223.345 87.6605 223.719 87.6605 224.176C87.6605 224.551 87.5526 224.886 87.3366 225.182C87.1236 225.477 86.8253 225.71 86.4418 225.881C86.0582 226.051 85.6122 226.136 85.1037 226.136C84.4361 226.136 83.8835 225.991 83.446 225.702C83.0085 225.412 82.7315 224.989 82.6151 224.432L83.5696 224.193C83.6605 224.545 83.8324 224.81 84.0852 224.986C84.3409 225.162 84.6747 225.25 85.0866 225.25C85.5554 225.25 85.9276 225.151 86.2031 224.952C86.4815 224.75 86.6207 224.509 86.6207 224.227C86.6207 224 86.5412 223.81 86.3821 223.656C86.223 223.5 85.9787 223.384 85.6491 223.307L84.5582 223.051C83.9588 222.909 83.5185 222.689 83.2372 222.391C82.9588 222.089 82.8196 221.713 82.8196 221.261C82.8196 220.892 82.9233 220.565 83.1307 220.281C83.3409 219.997 83.6264 219.774 83.9872 219.612C84.3509 219.45 84.7628 219.369 85.223 219.369C85.8707 219.369 86.3793 219.511 86.7486 219.795C87.1207 220.08 87.3849 220.455 87.5412 220.92Z" fill="#4E4E4E"/>
<circle cx="26.5" cy="222.5" r="4.5" fill="#F073A1"/>
<path d="M130.057 186V177.273H133.006C133.69 177.273 134.25 177.396 134.685 177.643C135.122 177.888 135.446 178.219 135.656 178.636C135.866 179.054 135.972 179.52 135.972 180.034C135.972 180.548 135.866 181.016 135.656 181.436C135.449 181.857 135.128 182.192 134.693 182.442C134.259 182.689 133.702 182.812 133.023 182.812H130.909V181.875H132.989C133.457 181.875 133.834 181.794 134.118 181.632C134.402 181.47 134.608 181.251 134.736 180.976C134.866 180.697 134.932 180.384 134.932 180.034C134.932 179.685 134.866 179.372 134.736 179.097C134.608 178.821 134.401 178.605 134.114 178.449C133.827 178.29 133.446 178.21 132.972 178.21H131.114V186H130.057ZM137.538 186V179.455H138.509V180.443H138.577C138.697 180.119 138.913 179.857 139.225 179.655C139.538 179.453 139.89 179.352 140.282 179.352C140.356 179.352 140.448 179.354 140.559 179.357C140.67 179.359 140.754 179.364 140.81 179.369V180.392C140.776 180.384 140.698 180.371 140.576 180.354C140.457 180.334 140.33 180.324 140.197 180.324C139.879 180.324 139.594 180.391 139.344 180.524C139.097 180.655 138.901 180.837 138.756 181.07C138.614 181.3 138.543 181.562 138.543 181.858V186H137.538ZM144.462 186.136C143.871 186.136 143.353 185.996 142.907 185.714C142.464 185.433 142.117 185.04 141.867 184.534C141.62 184.028 141.496 183.437 141.496 182.761C141.496 182.08 141.62 181.484 141.867 180.976C142.117 180.467 142.464 180.072 142.907 179.791C143.353 179.51 143.871 179.369 144.462 179.369C145.053 179.369 145.57 179.51 146.013 179.791C146.46 180.072 146.806 180.467 147.053 180.976C147.303 181.484 147.428 182.08 147.428 182.761C147.428 183.437 147.303 184.028 147.053 184.534C146.806 185.04 146.46 185.433 146.013 185.714C145.57 185.996 145.053 186.136 144.462 186.136ZM144.462 185.233C144.911 185.233 145.281 185.118 145.57 184.888C145.86 184.658 146.075 184.355 146.214 183.98C146.353 183.605 146.423 183.199 146.423 182.761C146.423 182.324 146.353 181.916 146.214 181.538C146.075 181.161 145.86 180.855 145.57 180.622C145.281 180.389 144.911 180.273 144.462 180.273C144.013 180.273 143.644 180.389 143.354 180.622C143.065 180.855 142.85 181.161 142.711 181.538C142.572 181.916 142.502 182.324 142.502 182.761C142.502 183.199 142.572 183.605 142.711 183.98C142.85 184.355 143.065 184.658 143.354 184.888C143.644 185.118 144.013 185.233 144.462 185.233ZM148.963 179.455H149.969V186.477C149.969 186.881 149.9 187.23 149.76 187.526C149.624 187.821 149.417 188.05 149.138 188.212C148.863 188.374 148.515 188.455 148.094 188.455C148.06 188.455 148.026 188.455 147.992 188.455C147.958 188.455 147.924 188.455 147.89 188.455V187.517C147.924 187.517 147.955 187.517 147.983 187.517C148.012 187.517 148.043 187.517 148.077 187.517C148.384 187.517 148.608 187.426 148.75 187.244C148.892 187.065 148.963 186.81 148.963 186.477V179.455ZM149.458 178.364C149.262 178.364 149.093 178.297 148.951 178.163C148.811 178.03 148.742 177.869 148.742 177.682C148.742 177.494 148.811 177.334 148.951 177.2C149.093 177.067 149.262 177 149.458 177C149.654 177 149.821 177.067 149.961 177.2C150.103 177.334 150.174 177.494 150.174 177.682C150.174 177.869 150.103 178.03 149.961 178.163C149.821 178.297 149.654 178.364 149.458 178.364ZM154.555 186.136C153.925 186.136 153.381 185.997 152.923 185.719C152.469 185.438 152.118 185.045 151.871 184.543C151.626 184.037 151.504 183.449 151.504 182.778C151.504 182.108 151.626 181.517 151.871 181.006C152.118 180.491 152.462 180.091 152.902 179.804C153.345 179.514 153.862 179.369 154.453 179.369C154.794 179.369 155.131 179.426 155.463 179.54C155.795 179.653 156.098 179.838 156.371 180.094C156.643 180.347 156.861 180.682 157.023 181.099C157.185 181.517 157.266 182.031 157.266 182.642V183.068H152.22V182.199H156.243C156.243 181.83 156.169 181.5 156.021 181.21C155.876 180.92 155.669 180.692 155.399 180.524C155.132 180.357 154.817 180.273 154.453 180.273C154.053 180.273 153.706 180.372 153.413 180.571C153.124 180.767 152.901 181.023 152.744 181.338C152.588 181.653 152.51 181.991 152.51 182.352V182.932C152.51 183.426 152.595 183.845 152.766 184.189C152.939 184.53 153.179 184.79 153.486 184.969C153.793 185.145 154.149 185.233 154.555 185.233C154.82 185.233 155.058 185.196 155.271 185.122C155.487 185.045 155.673 184.932 155.83 184.781C155.986 184.628 156.107 184.437 156.192 184.21L157.163 184.483C157.061 184.812 156.889 185.102 156.648 185.352C156.406 185.599 156.108 185.793 155.753 185.932C155.398 186.068 154.999 186.136 154.555 186.136ZM161.455 186.136C160.841 186.136 160.313 185.991 159.869 185.702C159.426 185.412 159.085 185.013 158.847 184.504C158.608 183.996 158.489 183.415 158.489 182.761C158.489 182.097 158.611 181.51 158.855 181.001C159.102 180.49 159.446 180.091 159.886 179.804C160.33 179.514 160.847 179.369 161.438 179.369C161.898 179.369 162.312 179.455 162.682 179.625C163.051 179.795 163.354 180.034 163.589 180.341C163.825 180.648 163.972 181.006 164.028 181.415H163.023C162.946 181.116 162.776 180.852 162.511 180.622C162.25 180.389 161.898 180.273 161.455 180.273C161.063 180.273 160.719 180.375 160.423 180.58C160.131 180.781 159.902 181.067 159.737 181.436C159.575 181.803 159.494 182.233 159.494 182.727C159.494 183.233 159.574 183.673 159.733 184.048C159.895 184.423 160.122 184.714 160.415 184.922C160.71 185.129 161.057 185.233 161.455 185.233C161.716 185.233 161.953 185.188 162.166 185.097C162.379 185.006 162.56 184.875 162.707 184.705C162.855 184.534 162.96 184.33 163.023 184.091H164.028C163.972 184.477 163.831 184.825 163.607 185.135C163.385 185.442 163.091 185.686 162.724 185.868C162.361 186.047 161.938 186.136 161.455 186.136ZM168.345 179.455V180.307H164.953V179.455H168.345ZM165.942 177.886H166.947V184.125C166.947 184.409 166.989 184.622 167.071 184.764C167.156 184.903 167.264 184.997 167.395 185.045C167.528 185.091 167.669 185.114 167.817 185.114C167.928 185.114 168.018 185.108 168.089 185.097C168.161 185.082 168.217 185.071 168.26 185.062L168.464 185.966C168.396 185.991 168.301 186.017 168.179 186.043C168.057 186.071 167.902 186.085 167.714 186.085C167.43 186.085 167.152 186.024 166.879 185.902C166.609 185.78 166.385 185.594 166.206 185.344C166.03 185.094 165.942 184.778 165.942 184.398V177.886Z" fill="#4E4E4E"/>
<circle cx="116.5" cy="182.5" r="4.5" fill="#ED7E6A"/>
<path d="M130.057 197.273H131.318L134.284 204.517H134.386L137.352 197.273H138.614V206H137.625V199.369H137.54L134.812 206H133.858L131.131 199.369H131.045V206H130.057V197.273ZM142.522 206.153C142.108 206.153 141.731 206.075 141.393 205.919C141.055 205.76 140.787 205.531 140.588 205.233C140.389 204.932 140.289 204.568 140.289 204.142C140.289 203.767 140.363 203.463 140.511 203.23C140.659 202.994 140.856 202.81 141.103 202.676C141.35 202.543 141.623 202.443 141.922 202.378C142.223 202.31 142.525 202.256 142.829 202.216C143.227 202.165 143.549 202.126 143.797 202.101C144.047 202.072 144.228 202.026 144.342 201.96C144.458 201.895 144.517 201.781 144.517 201.619V201.585C144.517 201.165 144.402 200.838 144.172 200.605C143.944 200.372 143.599 200.256 143.136 200.256C142.656 200.256 142.279 200.361 142.007 200.571C141.734 200.781 141.542 201.006 141.431 201.244L140.477 200.903C140.647 200.506 140.875 200.196 141.159 199.974C141.446 199.75 141.758 199.594 142.096 199.506C142.437 199.415 142.772 199.369 143.102 199.369C143.312 199.369 143.554 199.395 143.826 199.446C144.102 199.494 144.368 199.595 144.623 199.749C144.882 199.902 145.096 200.134 145.267 200.443C145.437 200.753 145.522 201.168 145.522 201.688V206H144.517V205.114H144.466C144.397 205.256 144.284 205.408 144.125 205.57C143.966 205.732 143.754 205.869 143.49 205.983C143.225 206.097 142.903 206.153 142.522 206.153ZM142.676 205.25C143.074 205.25 143.409 205.172 143.681 205.016C143.957 204.859 144.164 204.658 144.304 204.411C144.446 204.163 144.517 203.903 144.517 203.631V202.71C144.474 202.761 144.38 202.808 144.235 202.851C144.093 202.891 143.929 202.926 143.741 202.957C143.556 202.986 143.376 203.011 143.2 203.034C143.027 203.054 142.886 203.071 142.778 203.085C142.517 203.119 142.272 203.175 142.045 203.251C141.821 203.325 141.639 203.437 141.5 203.588C141.363 203.736 141.295 203.937 141.295 204.193C141.295 204.543 141.424 204.807 141.683 204.986C141.944 205.162 142.275 205.25 142.676 205.25ZM151.994 200.92L151.091 201.176C151.034 201.026 150.95 200.879 150.839 200.737C150.732 200.592 150.584 200.473 150.396 200.379C150.209 200.286 149.969 200.239 149.676 200.239C149.276 200.239 148.942 200.331 148.675 200.516C148.411 200.697 148.278 200.929 148.278 201.21C148.278 201.46 148.369 201.658 148.551 201.803C148.733 201.947 149.017 202.068 149.403 202.165L150.375 202.403C150.96 202.545 151.396 202.763 151.683 203.055C151.97 203.345 152.114 203.719 152.114 204.176C152.114 204.551 152.006 204.886 151.79 205.182C151.577 205.477 151.278 205.71 150.895 205.881C150.511 206.051 150.065 206.136 149.557 206.136C148.889 206.136 148.337 205.991 147.899 205.702C147.462 205.412 147.185 204.989 147.068 204.432L148.023 204.193C148.114 204.545 148.286 204.81 148.538 204.986C148.794 205.162 149.128 205.25 149.54 205.25C150.009 205.25 150.381 205.151 150.656 204.952C150.935 204.75 151.074 204.509 151.074 204.227C151.074 204 150.994 203.81 150.835 203.656C150.676 203.5 150.432 203.384 150.102 203.307L149.011 203.051C148.412 202.909 147.972 202.689 147.69 202.391C147.412 202.089 147.273 201.713 147.273 201.261C147.273 200.892 147.376 200.565 147.584 200.281C147.794 199.997 148.08 199.774 148.44 199.612C148.804 199.45 149.216 199.369 149.676 199.369C150.324 199.369 150.832 199.511 151.202 199.795C151.574 200.08 151.838 200.455 151.994 200.92ZM156.474 199.455V200.307H153.082V199.455H156.474ZM154.071 197.886H155.076V204.125C155.076 204.409 155.118 204.622 155.2 204.764C155.285 204.903 155.393 204.997 155.524 205.045C155.657 205.091 155.798 205.114 155.946 205.114C156.056 205.114 156.147 205.108 156.218 205.097C156.289 205.082 156.346 205.071 156.389 205.062L156.593 205.966C156.525 205.991 156.43 206.017 156.308 206.043C156.186 206.071 156.031 206.085 155.843 206.085C155.559 206.085 155.281 206.024 155.008 205.902C154.738 205.78 154.514 205.594 154.335 205.344C154.159 205.094 154.071 204.778 154.071 204.398V197.886ZM160.661 206.136C160.03 206.136 159.486 205.997 159.029 205.719C158.574 205.438 158.223 205.045 157.976 204.543C157.732 204.037 157.61 203.449 157.61 202.778C157.61 202.108 157.732 201.517 157.976 201.006C158.223 200.491 158.567 200.091 159.007 199.804C159.451 199.514 159.968 199.369 160.559 199.369C160.9 199.369 161.236 199.426 161.569 199.54C161.901 199.653 162.203 199.838 162.476 200.094C162.749 200.347 162.966 200.682 163.128 201.099C163.29 201.517 163.371 202.031 163.371 202.642V203.068H158.326V202.199H162.348C162.348 201.83 162.275 201.5 162.127 201.21C161.982 200.92 161.775 200.692 161.505 200.524C161.238 200.357 160.922 200.273 160.559 200.273C160.158 200.273 159.811 200.372 159.519 200.571C159.229 200.767 159.006 201.023 158.85 201.338C158.694 201.653 158.615 201.991 158.615 202.352V202.932C158.615 203.426 158.701 203.845 158.871 204.189C159.044 204.53 159.284 204.79 159.591 204.969C159.898 205.145 160.255 205.233 160.661 205.233C160.925 205.233 161.164 205.196 161.377 205.122C161.593 205.045 161.779 204.932 161.935 204.781C162.091 204.628 162.212 204.437 162.297 204.21L163.269 204.483C163.167 204.812 162.995 205.102 162.753 205.352C162.512 205.599 162.213 205.793 161.858 205.932C161.503 206.068 161.104 206.136 160.661 206.136ZM164.901 206V199.455H165.873V200.443H165.941C166.06 200.119 166.276 199.857 166.588 199.655C166.901 199.453 167.253 199.352 167.645 199.352C167.719 199.352 167.811 199.354 167.922 199.357C168.033 199.359 168.117 199.364 168.174 199.369V200.392C168.14 200.384 168.061 200.371 167.939 200.354C167.82 200.334 167.694 200.324 167.56 200.324C167.242 200.324 166.958 200.391 166.708 200.524C166.461 200.655 166.265 200.837 166.12 201.07C165.978 201.3 165.907 201.562 165.907 201.858V206H164.901ZM173.746 202.062V206H172.741V199.455H173.712V200.477H173.798C173.951 200.145 174.184 199.878 174.496 199.676C174.809 199.472 175.212 199.369 175.707 199.369C176.15 199.369 176.538 199.46 176.87 199.642C177.202 199.821 177.461 200.094 177.646 200.46C177.83 200.824 177.923 201.284 177.923 201.841V206H176.917V201.909C176.917 201.395 176.783 200.994 176.516 200.707C176.249 200.418 175.883 200.273 175.417 200.273C175.096 200.273 174.809 200.342 174.556 200.482C174.306 200.621 174.109 200.824 173.964 201.091C173.819 201.358 173.746 201.682 173.746 202.062ZM182.419 206.136C181.828 206.136 181.31 205.996 180.864 205.714C180.421 205.433 180.074 205.04 179.824 204.534C179.577 204.028 179.453 203.437 179.453 202.761C179.453 202.08 179.577 201.484 179.824 200.976C180.074 200.467 180.421 200.072 180.864 199.791C181.31 199.51 181.828 199.369 182.419 199.369C183.01 199.369 183.527 199.51 183.971 199.791C184.417 200.072 184.763 200.467 185.01 200.976C185.26 201.484 185.385 202.08 185.385 202.761C185.385 203.437 185.26 204.028 185.01 204.534C184.763 205.04 184.417 205.433 183.971 205.714C183.527 205.996 183.01 206.136 182.419 206.136ZM182.419 205.233C182.868 205.233 183.238 205.118 183.527 204.888C183.817 204.658 184.032 204.355 184.171 203.98C184.31 203.605 184.38 203.199 184.38 202.761C184.38 202.324 184.31 201.916 184.171 201.538C184.032 201.161 183.817 200.855 183.527 200.622C183.238 200.389 182.868 200.273 182.419 200.273C181.971 200.273 181.601 200.389 181.311 200.622C181.022 200.855 180.807 201.161 180.668 201.538C180.529 201.916 180.459 202.324 180.459 202.761C180.459 203.199 180.529 203.605 180.668 203.98C180.807 204.355 181.022 204.658 181.311 204.888C181.601 205.118 181.971 205.233 182.419 205.233ZM189.392 206.136C188.847 206.136 188.365 205.999 187.947 205.723C187.53 205.445 187.203 205.053 186.967 204.547C186.732 204.038 186.614 203.438 186.614 202.744C186.614 202.057 186.732 201.46 186.967 200.955C187.203 200.449 187.531 200.058 187.952 199.783C188.372 199.507 188.858 199.369 189.409 199.369C189.835 199.369 190.172 199.44 190.419 199.582C190.669 199.722 190.859 199.881 190.99 200.06C191.124 200.236 191.227 200.381 191.301 200.494H191.386V197.273H192.392V206H191.42V204.994H191.301C191.227 205.114 191.122 205.264 190.986 205.446C190.849 205.625 190.655 205.786 190.402 205.928C190.149 206.067 189.813 206.136 189.392 206.136ZM189.528 205.233C189.932 205.233 190.273 205.128 190.551 204.918C190.83 204.705 191.041 204.411 191.186 204.036C191.331 203.658 191.403 203.222 191.403 202.727C191.403 202.239 191.332 201.811 191.19 201.445C191.048 201.075 190.838 200.788 190.56 200.584C190.281 200.376 189.938 200.273 189.528 200.273C189.102 200.273 188.747 200.382 188.463 200.601C188.182 200.817 187.97 201.111 187.828 201.483C187.689 201.852 187.619 202.267 187.619 202.727C187.619 203.193 187.69 203.616 187.832 203.997C187.977 204.375 188.19 204.676 188.472 204.901C188.756 205.122 189.108 205.233 189.528 205.233ZM197.118 206.136C196.487 206.136 195.943 205.997 195.486 205.719C195.031 205.438 194.68 205.045 194.433 204.543C194.189 204.037 194.067 203.449 194.067 202.778C194.067 202.108 194.189 201.517 194.433 201.006C194.68 200.491 195.024 200.091 195.464 199.804C195.908 199.514 196.425 199.369 197.016 199.369C197.357 199.369 197.693 199.426 198.026 199.54C198.358 199.653 198.661 199.838 198.933 200.094C199.206 200.347 199.423 200.682 199.585 201.099C199.747 201.517 199.828 202.031 199.828 202.642V203.068H194.783V202.199H198.805C198.805 201.83 198.732 201.5 198.584 201.21C198.439 200.92 198.232 200.692 197.962 200.524C197.695 200.357 197.379 200.273 197.016 200.273C196.615 200.273 196.268 200.372 195.976 200.571C195.686 200.767 195.463 201.023 195.307 201.338C195.151 201.653 195.072 201.991 195.072 202.352V202.932C195.072 203.426 195.158 203.845 195.328 204.189C195.501 204.53 195.741 204.79 196.048 204.969C196.355 205.145 196.712 205.233 197.118 205.233C197.382 205.233 197.621 205.196 197.834 205.122C198.05 205.045 198.236 204.932 198.392 204.781C198.548 204.628 198.669 204.437 198.754 204.21L199.726 204.483C199.624 204.812 199.452 205.102 199.21 205.352C198.969 205.599 198.67 205.793 198.315 205.932C197.96 206.068 197.561 206.136 197.118 206.136ZM205.994 200.92L205.091 201.176C205.034 201.026 204.95 200.879 204.839 200.737C204.732 200.592 204.584 200.473 204.396 200.379C204.209 200.286 203.969 200.239 203.676 200.239C203.276 200.239 202.942 200.331 202.675 200.516C202.411 200.697 202.278 200.929 202.278 201.21C202.278 201.46 202.369 201.658 202.551 201.803C202.733 201.947 203.017 202.068 203.403 202.165L204.375 202.403C204.96 202.545 205.396 202.763 205.683 203.055C205.97 203.345 206.114 203.719 206.114 204.176C206.114 204.551 206.006 204.886 205.79 205.182C205.577 205.477 205.278 205.71 204.895 205.881C204.511 206.051 204.065 206.136 203.557 206.136C202.889 206.136 202.337 205.991 201.899 205.702C201.462 205.412 201.185 204.989 201.068 204.432L202.023 204.193C202.114 204.545 202.286 204.81 202.538 204.986C202.794 205.162 203.128 205.25 203.54 205.25C204.009 205.25 204.381 205.151 204.656 204.952C204.935 204.75 205.074 204.509 205.074 204.227C205.074 204 204.994 203.81 204.835 203.656C204.676 203.5 204.432 203.384 204.102 203.307L203.011 203.051C202.412 202.909 201.972 202.689 201.69 202.391C201.412 202.089 201.273 201.713 201.273 201.261C201.273 200.892 201.376 200.565 201.584 200.281C201.794 199.997 202.08 199.774 202.44 199.612C202.804 199.45 203.216 199.369 203.676 199.369C204.324 199.369 204.832 199.511 205.202 199.795C205.574 200.08 205.838 200.455 205.994 200.92Z" fill="#4E4E4E"/>
<circle cx="116.5" cy="202.5" r="4.5" fill="#53E39E"/>
<path d="M130.057 226V217.273H133.006C133.69 217.273 134.25 217.396 134.685 217.643C135.122 217.888 135.446 218.219 135.656 218.636C135.866 219.054 135.972 219.52 135.972 220.034C135.972 220.548 135.866 221.016 135.656 221.436C135.449 221.857 135.128 222.192 134.693 222.442C134.259 222.689 133.702 222.812 133.023 222.812H130.909V221.875H132.989C133.457 221.875 133.834 221.794 134.118 221.632C134.402 221.47 134.608 221.251 134.736 220.976C134.866 220.697 134.932 220.384 134.932 220.034C134.932 219.685 134.866 219.372 134.736 219.097C134.608 218.821 134.401 218.605 134.114 218.449C133.827 218.29 133.446 218.21 132.972 218.21H131.114V226H130.057ZM137.538 226V219.455H138.509V220.443H138.577C138.697 220.119 138.913 219.857 139.225 219.655C139.538 219.453 139.89 219.352 140.282 219.352C140.356 219.352 140.448 219.354 140.559 219.357C140.67 219.359 140.754 219.364 140.81 219.369V220.392C140.776 220.384 140.698 220.371 140.576 220.354C140.457 220.334 140.33 220.324 140.197 220.324C139.879 220.324 139.594 220.391 139.344 220.524C139.097 220.655 138.901 220.837 138.756 221.07C138.614 221.3 138.543 221.562 138.543 221.858V226H137.538ZM144.462 226.136C143.871 226.136 143.353 225.996 142.907 225.714C142.464 225.433 142.117 225.04 141.867 224.534C141.62 224.028 141.496 223.437 141.496 222.761C141.496 222.08 141.62 221.484 141.867 220.976C142.117 220.467 142.464 220.072 142.907 219.791C143.353 219.51 143.871 219.369 144.462 219.369C145.053 219.369 145.57 219.51 146.013 219.791C146.46 220.072 146.806 220.467 147.053 220.976C147.303 221.484 147.428 222.08 147.428 222.761C147.428 223.437 147.303 224.028 147.053 224.534C146.806 225.04 146.46 225.433 146.013 225.714C145.57 225.996 145.053 226.136 144.462 226.136ZM144.462 225.233C144.911 225.233 145.281 225.118 145.57 224.888C145.86 224.658 146.075 224.355 146.214 223.98C146.353 223.605 146.423 223.199 146.423 222.761C146.423 222.324 146.353 221.916 146.214 221.538C146.075 221.161 145.86 220.855 145.57 220.622C145.281 220.389 144.911 220.273 144.462 220.273C144.013 220.273 143.644 220.389 143.354 220.622C143.065 220.855 142.85 221.161 142.711 221.538C142.572 221.916 142.502 222.324 142.502 222.761C142.502 223.199 142.572 223.605 142.711 223.98C142.85 224.355 143.065 224.658 143.354 224.888C143.644 225.118 144.013 225.233 144.462 225.233ZM151.605 228.591C151.12 228.591 150.702 228.528 150.353 228.403C150.003 228.281 149.712 228.119 149.479 227.918C149.249 227.719 149.066 227.506 148.929 227.278L149.73 226.716C149.821 226.835 149.936 226.972 150.076 227.125C150.215 227.281 150.405 227.416 150.647 227.53C150.891 227.646 151.211 227.705 151.605 227.705C152.134 227.705 152.57 227.577 152.914 227.321C153.257 227.065 153.429 226.665 153.429 226.119V224.79H153.344C153.27 224.909 153.165 225.057 153.029 225.233C152.895 225.406 152.702 225.561 152.449 225.697C152.199 225.831 151.861 225.898 151.435 225.898C150.907 225.898 150.432 225.773 150.012 225.523C149.594 225.273 149.263 224.909 149.019 224.432C148.777 223.955 148.657 223.375 148.657 222.693C148.657 222.023 148.775 221.439 149.01 220.942C149.246 220.442 149.574 220.055 149.995 219.783C150.415 219.507 150.901 219.369 151.452 219.369C151.878 219.369 152.216 219.44 152.466 219.582C152.719 219.722 152.912 219.881 153.046 220.06C153.182 220.236 153.287 220.381 153.361 220.494H153.463V219.455H154.435V226.188C154.435 226.75 154.307 227.207 154.051 227.56C153.799 227.915 153.458 228.175 153.029 228.339C152.603 228.507 152.128 228.591 151.605 228.591ZM151.571 224.994C151.975 224.994 152.316 224.902 152.594 224.717C152.873 224.533 153.084 224.267 153.229 223.92C153.374 223.574 153.446 223.159 153.446 222.676C153.446 222.205 153.375 221.788 153.233 221.428C153.091 221.067 152.881 220.784 152.603 220.58C152.324 220.375 151.98 220.273 151.571 220.273C151.145 220.273 150.79 220.381 150.506 220.597C150.225 220.812 150.013 221.102 149.871 221.466C149.732 221.83 149.662 222.233 149.662 222.676C149.662 223.131 149.733 223.533 149.875 223.882C150.02 224.229 150.233 224.501 150.515 224.7C150.799 224.896 151.151 224.994 151.571 224.994ZM156.276 226V219.455H157.248V220.443H157.316C157.435 220.119 157.651 219.857 157.963 219.655C158.276 219.453 158.628 219.352 159.02 219.352C159.094 219.352 159.186 219.354 159.297 219.357C159.408 219.359 159.492 219.364 159.549 219.369V220.392C159.515 220.384 159.436 220.371 159.314 220.354C159.195 220.334 159.069 220.324 158.935 220.324C158.617 220.324 158.333 220.391 158.083 220.524C157.836 220.655 157.64 220.837 157.495 221.07C157.353 221.3 157.282 221.562 157.282 221.858V226H156.276ZM162.667 226.153C162.252 226.153 161.876 226.075 161.538 225.919C161.2 225.76 160.931 225.531 160.732 225.233C160.533 224.932 160.434 224.568 160.434 224.142C160.434 223.767 160.508 223.463 160.656 223.23C160.803 222.994 161.001 222.81 161.248 222.676C161.495 222.543 161.768 222.443 162.066 222.378C162.367 222.31 162.67 222.256 162.974 222.216C163.371 222.165 163.694 222.126 163.941 222.101C164.191 222.072 164.373 222.026 164.487 221.96C164.603 221.895 164.661 221.781 164.661 221.619V221.585C164.661 221.165 164.546 220.838 164.316 220.605C164.089 220.372 163.744 220.256 163.281 220.256C162.8 220.256 162.424 220.361 162.151 220.571C161.879 220.781 161.687 221.006 161.576 221.244L160.621 220.903C160.792 220.506 161.019 220.196 161.303 219.974C161.59 219.75 161.903 219.594 162.241 219.506C162.582 219.415 162.917 219.369 163.246 219.369C163.457 219.369 163.698 219.395 163.971 219.446C164.246 219.494 164.512 219.595 164.768 219.749C165.026 219.902 165.241 220.134 165.411 220.443C165.582 220.753 165.667 221.168 165.667 221.688V226H164.661V225.114H164.61C164.542 225.256 164.428 225.408 164.269 225.57C164.11 225.732 163.898 225.869 163.634 225.983C163.37 226.097 163.048 226.153 162.667 226.153ZM162.82 225.25C163.218 225.25 163.553 225.172 163.826 225.016C164.102 224.859 164.309 224.658 164.448 224.411C164.59 224.163 164.661 223.903 164.661 223.631V222.71C164.619 222.761 164.525 222.808 164.38 222.851C164.238 222.891 164.073 222.926 163.886 222.957C163.701 222.986 163.521 223.011 163.344 223.034C163.171 223.054 163.031 223.071 162.923 223.085C162.661 223.119 162.417 223.175 162.19 223.251C161.965 223.325 161.783 223.437 161.644 223.588C161.508 223.736 161.44 223.937 161.44 224.193C161.44 224.543 161.569 224.807 161.827 224.986C162.089 225.162 162.42 225.25 162.82 225.25ZM167.502 226V219.455H168.474V220.477H168.559C168.696 220.128 168.916 219.857 169.22 219.663C169.524 219.467 169.889 219.369 170.315 219.369C170.747 219.369 171.106 219.467 171.393 219.663C171.683 219.857 171.909 220.128 172.071 220.477H172.139C172.306 220.139 172.558 219.871 172.893 219.672C173.228 219.47 173.63 219.369 174.099 219.369C174.684 219.369 175.163 219.553 175.535 219.919C175.907 220.283 176.093 220.849 176.093 221.619V226H175.088V221.619C175.088 221.136 174.956 220.791 174.691 220.584C174.427 220.376 174.116 220.273 173.758 220.273C173.298 220.273 172.941 220.412 172.689 220.69C172.436 220.966 172.309 221.315 172.309 221.739V226H171.287V221.517C171.287 221.145 171.166 220.845 170.924 220.618C170.683 220.388 170.372 220.273 169.991 220.273C169.73 220.273 169.485 220.342 169.258 220.482C169.034 220.621 168.852 220.814 168.713 221.061C168.576 221.305 168.508 221.588 168.508 221.909V226H167.502Z" fill="#4E4E4E"/>
<circle cx="116.5" cy="222.5" r="4.5" fill="#A656FE"/>
</svg>
